<svg width="14" height="16" viewBox="0 0 14 16" fill="none" xmlns="http://www.w3.org/2000/svg">
<path d="M4.39056 14.1408C4.55858 14.6781 4.90324 15.1492 5.37334 15.4842C5.84344 15.8191 6.4139 16 7 16C7.5861 16 8.15656 15.8191 8.62666 15.4842C9.09676 15.1492 9.44142 14.6781 9.60944 14.1408H4.39056ZM0 13.3966H14V11.1638L12.4444 8.93106V5.20978C12.4444 4.52562 12.3036 3.84817 12.03 3.21609C11.7564 2.58401 11.3554 2.00968 10.8498 1.52591C10.3442 1.04214 9.74405 0.658387 9.0835 0.396571C8.42295 0.134755 7.71497 0 7 0C6.28503 0 5.57705 0.134755 4.9165 0.396571C4.25595 0.658387 3.65576 1.04214 3.1502 1.52591C2.64463 2.00968 2.2436 2.58401 1.96999 3.21609C1.69638 3.84817 1.55556 4.52562 1.55556 5.20978V8.93106L0 11.1638V13.3966Z" fill="white"/>
</svg>
